<?xml version="1.0" encoding="UTF-8" standalone="no"?>
<!-- Created with Inkscape (http://www.inkscape.org/) -->
<svg
   xmlns:dc="http://purl.org/dc/elements/1.1/"
   xmlns:cc="http://creativecommons.org/ns#"
   xmlns:rdf="http://www.w3.org/1999/02/22-rdf-syntax-ns#"
   xmlns:svg="http://www.w3.org/2000/svg"
   xmlns="http://www.w3.org/2000/svg"
   xmlns:sodipodi="http://sodipodi.sourceforge.net/DTD/sodipodi-0.dtd"
   xmlns:inkscape="http://www.inkscape.org/namespaces/inkscape"
   width="1024"
   height="1024"
   id="svg2"
   sodipodi:version="0.32"
   inkscape:version="0.46"
   version="1.0"
   sodipodi:docname="example.svg"
   inkscape:output_extension="org.inkscape.output.svg.inkscape">
  <defs
     id="defs4">
    <inkscape:perspective
       sodipodi:type="inkscape:persp3d"
       inkscape:vp_x="0 : 526.18109 : 1"
       inkscape:vp_y="0 : 1000 : 0"
       inkscape:vp_z="744.09448 : 526.18109 : 1"
       inkscape:persp3d-origin="372.04724 : 350.78739 : 1"
       id="perspective10" />
  </defs>
  <sodipodi:namedview
     id="base"
     pagecolor="#ffffff"
     bordercolor="#666666"
     borderopacity="1.0"
     gridtolerance="10000"
     guidetolerance="10"
     objecttolerance="10"
     inkscape:pageopacity="0.0"
     inkscape:pageshadow="2"
     inkscape:zoom="0.49497475"
     inkscape:cx="594.39157"
     inkscape:cy="438.48794"
     inkscape:document-units="px"
     inkscape:current-layer="layer7"
     showgrid="true"
     inkscape:window-width="1440"
     inkscape:window-height="853"
     inkscape:window-x="0"
     inkscape:window-y="0">
    <inkscape:grid
       type="xygrid"
       id="grid3402"
       visible="true"
       enabled="true"
       empspacing="64" />
  </sodipodi:namedview>
  <metadata
     id="metadata7">
    <rdf:RDF>
      <cc:Work
         rdf:about="">
        <dc:format>image/svg+xml</dc:format>
        <dc:type
           rdf:resource="http://purl.org/dc/dcmitype/StillImage" />
      </cc:Work>
    </rdf:RDF>
  </metadata>
  <g
     inkscape:label="data"
     inkscape:groupmode="layer"
     id="layer1"
     sodipodi:insensitive="true">
    <path
       sodipodi:type="arc"
       style="opacity:1;fill:#000000;fill-opacity:1;stroke:#106101;stroke-width:5;stroke-linecap:round;stroke-linejoin:miter;stroke-miterlimit:4;stroke-dasharray:none;stroke-dashoffset:0;stroke-opacity:0.70614032"
       id="path2411"
       sodipodi:cx="344.20947"
       sodipodi:cy="489.12424"
       sodipodi:rx="5.5558391"
       sodipodi:ry="5.5558391"
       d="M 349.76531,489.12424 A 5.5558391,5.5558391 0 1 1 338.65363,489.12424 A 5.5558391,5.5558391 0 1 1 349.76531,489.12424 z" />
    <path
       d="M 349.76531,489.12424 A 5.5558391,5.5558391 0 1 1 338.65363,489.12424 A 5.5558391,5.5558391 0 1 1 349.76531,489.12424 z"
       sodipodi:ry="5.5558391"
       sodipodi:rx="5.5558391"
       sodipodi:cy="489.12424"
       sodipodi:cx="344.20947"
       id="path3183"
       style="opacity:1;fill:#000000;fill-opacity:1;stroke:#106101;stroke-width:5;stroke-linecap:round;stroke-linejoin:miter;stroke-miterlimit:4;stroke-dasharray:none;stroke-dashoffset:0;stroke-opacity:0.70614032"
       sodipodi:type="arc"
       transform="translate(90,-56)" />
    <path
       transform="translate(275.86807,75.319831)"
       sodipodi:type="arc"
       style="opacity:1;fill:#000000;fill-opacity:1;stroke:#106101;stroke-width:5;stroke-linecap:round;stroke-linejoin:miter;stroke-miterlimit:4;stroke-dasharray:none;stroke-dashoffset:0;stroke-opacity:0.70614032"
       id="path3185"
       sodipodi:cx="344.20947"
       sodipodi:cy="489.12424"
       sodipodi:rx="5.5558391"
       sodipodi:ry="5.5558391"
       d="M 349.76531,489.12424 A 5.5558391,5.5558391 0 1 1 338.65363,489.12424 A 5.5558391,5.5558391 0 1 1 349.76531,489.12424 z" />
    <path
       d="M 349.76531,489.12424 A 5.5558391,5.5558391 0 1 1 338.65363,489.12424 A 5.5558391,5.5558391 0 1 1 349.76531,489.12424 z"
       sodipodi:ry="5.5558391"
       sodipodi:rx="5.5558391"
       sodipodi:cy="489.12424"
       sodipodi:cx="344.20947"
       id="path3187"
       style="opacity:1;fill:#000000;fill-opacity:1;stroke:#106101;stroke-width:5;stroke-linecap:round;stroke-linejoin:miter;stroke-miterlimit:4;stroke-dasharray:none;stroke-dashoffset:0;stroke-opacity:0.70614032"
       sodipodi:type="arc"
       transform="translate(298.09143,-249.94929)" />
    <path
       transform="translate(55.654819,-316.61936)"
       sodipodi:type="arc"
       style="opacity:1;fill:#000000;fill-opacity:1;stroke:#106101;stroke-width:5;stroke-linecap:round;stroke-linejoin:miter;stroke-miterlimit:4;stroke-dasharray:none;stroke-dashoffset:0;stroke-opacity:0.70614032"
       id="path3189"
       sodipodi:cx="344.20947"
       sodipodi:cy="489.12424"
       sodipodi:rx="5.5558391"
       sodipodi:ry="5.5558391"
       d="M 349.76531,489.12424 A 5.5558391,5.5558391 0 1 1 338.65363,489.12424 A 5.5558391,5.5558391 0 1 1 349.76531,489.12424 z" />
    <path
       d="M 349.76531,489.12424 A 5.5558391,5.5558391 0 1 1 338.65363,489.12424 A 5.5558391,5.5558391 0 1 1 349.76531,489.12424 z"
       sodipodi:ry="5.5558391"
       sodipodi:rx="5.5558391"
       sodipodi:cy="489.12424"
       sodipodi:cx="344.20947"
       id="path3191"
       style="opacity:1;fill:#000000;fill-opacity:1;stroke:#106101;stroke-width:5;stroke-linecap:round;stroke-linejoin:miter;stroke-miterlimit:4;stroke-dasharray:none;stroke-dashoffset:0;stroke-opacity:0.70614032"
       sodipodi:type="arc"
       transform="translate(-4.9543337,-217.62441)" />
    <path
       transform="translate(-225.16759,-393.39095)"
       sodipodi:type="arc"
       style="opacity:1;fill:#000000;fill-opacity:1;stroke:#106101;stroke-width:5;stroke-linecap:round;stroke-linejoin:miter;stroke-miterlimit:4;stroke-dasharray:none;stroke-dashoffset:0;stroke-opacity:0.70614032"
       id="path3193"
       sodipodi:cx="344.20947"
       sodipodi:cy="489.12424"
       sodipodi:rx="5.5558391"
       sodipodi:ry="5.5558391"
       d="M 349.76531,489.12424 A 5.5558391,5.5558391 0 1 1 338.65363,489.12424 A 5.5558391,5.5558391 0 1 1 349.76531,489.12424 z" />
    <path
       d="M 349.76531,489.12424 A 5.5558391,5.5558391 0 1 1 338.65363,489.12424 A 5.5558391,5.5558391 0 1 1 349.76531,489.12424 z"
       sodipodi:ry="5.5558391"
       sodipodi:rx="5.5558391"
       sodipodi:cy="489.12424"
       sodipodi:cx="344.20947"
       id="path3195"
       style="opacity:1;fill:#000000;fill-opacity:1;stroke:#106101;stroke-width:5;stroke-linecap:round;stroke-linejoin:miter;stroke-miterlimit:4;stroke-dasharray:none;stroke-dashoffset:0;stroke-opacity:0.70614032"
       sodipodi:type="arc"
       transform="translate(-239.30973,-371.16759)" />
    <path
       transform="translate(-223.14729,-338.84271)"
       sodipodi:type="arc"
       style="opacity:1;fill:#000000;fill-opacity:1;stroke:#106101;stroke-width:5;stroke-linecap:round;stroke-linejoin:miter;stroke-miterlimit:4;stroke-dasharray:none;stroke-dashoffset:0;stroke-opacity:0.70614032"
       id="path3197"
       sodipodi:cx="344.20947"
       sodipodi:cy="489.12424"
       sodipodi:rx="5.5558391"
       sodipodi:ry="5.5558391"
       d="M 349.76531,489.12424 A 5.5558391,5.5558391 0 1 1 338.65363,489.12424 A 5.5558391,5.5558391 0 1 1 349.76531,489.12424 z" />
    <path
       d="M 349.76531,489.12424 A 5.5558391,5.5558391 0 1 1 338.65363,489.12424 A 5.5558391,5.5558391 0 1 1 349.76531,489.12424 z"
       sodipodi:ry="5.5558391"
       sodipodi:rx="5.5558391"
       sodipodi:cy="489.12424"
       sodipodi:cx="344.20947"
       id="path3199"
       style="opacity:1;fill:#000000;fill-opacity:1;stroke:#106101;stroke-width:5;stroke-linecap:round;stroke-linejoin:miter;stroke-miterlimit:4;stroke-dasharray:none;stroke-dashoffset:0;stroke-opacity:0.70614032"
       sodipodi:type="arc"
       transform="translate(-219.10668,-274.19295)" />
    <path
       transform="translate(-180.72088,-215.6041)"
       sodipodi:type="arc"
       style="opacity:1;fill:#000000;fill-opacity:1;stroke:#106101;stroke-width:5;stroke-linecap:round;stroke-linejoin:miter;stroke-miterlimit:4;stroke-dasharray:none;stroke-dashoffset:0;stroke-opacity:0.70614032"
       id="path3201"
       sodipodi:cx="344.20947"
       sodipodi:cy="489.12424"
       sodipodi:rx="5.5558391"
       sodipodi:ry="5.5558391"
       d="M 349.76531,489.12424 A 5.5558391,5.5558391 0 1 1 338.65363,489.12424 A 5.5558391,5.5558391 0 1 1 349.76531,489.12424 z" />
    <path
       d="M 349.76531,489.12424 A 5.5558391,5.5558391 0 1 1 338.65363,489.12424 A 5.5558391,5.5558391 0 1 1 349.76531,489.12424 z"
       sodipodi:ry="5.5558391"
       sodipodi:rx="5.5558391"
       sodipodi:cy="489.12424"
       sodipodi:cx="344.20947"
       id="path3203"
       style="opacity:1;fill:#000000;fill-opacity:1;stroke:#106101;stroke-width:5;stroke-linecap:round;stroke-linejoin:miter;stroke-miterlimit:4;stroke-dasharray:none;stroke-dashoffset:0;stroke-opacity:0.70614032"
       sodipodi:type="arc"
       transform="translate(-202.94424,-245.90868)" />
    <path
       transform="translate(-215.06607,-304.49753)"
       sodipodi:type="arc"
       style="opacity:1;fill:#000000;fill-opacity:1;stroke:#106101;stroke-width:5;stroke-linecap:round;stroke-linejoin:miter;stroke-miterlimit:4;stroke-dasharray:none;stroke-dashoffset:0;stroke-opacity:0.70614032"
       id="path3205"
       sodipodi:cx="344.20947"
       sodipodi:cy="489.12424"
       sodipodi:rx="5.5558391"
       sodipodi:ry="5.5558391"
       d="M 349.76531,489.12424 A 5.5558391,5.5558391 0 1 1 338.65363,489.12424 A 5.5558391,5.5558391 0 1 1 349.76531,489.12424 z" />
    <path
       d="M 349.76531,489.12424 A 5.5558391,5.5558391 0 1 1 338.65363,489.12424 A 5.5558391,5.5558391 0 1 1 349.76531,489.12424 z"
       sodipodi:ry="5.5558391"
       sodipodi:rx="5.5558391"
       sodipodi:cy="489.12424"
       sodipodi:cx="344.20947"
       id="path3207"
       style="opacity:1;fill:#000000;fill-opacity:1;stroke:#106101;stroke-width:5;stroke-linecap:round;stroke-linejoin:miter;stroke-miterlimit:4;stroke-dasharray:none;stroke-dashoffset:0;stroke-opacity:0.70614032"
       sodipodi:type="arc"
       transform="translate(-160.51783,-183.27922)" />
    <path
       transform="translate(-156.47722,-148.93403)"
       sodipodi:type="arc"
       style="opacity:1;fill:#000000;fill-opacity:1;stroke:#106101;stroke-width:5;stroke-linecap:round;stroke-linejoin:miter;stroke-miterlimit:4;stroke-dasharray:none;stroke-dashoffset:0;stroke-opacity:0.70614032"
       id="path3209"
       sodipodi:cx="344.20947"
       sodipodi:cy="489.12424"
       sodipodi:rx="5.5558391"
       sodipodi:ry="5.5558391"
       d="M 349.76531,489.12424 A 5.5558391,5.5558391 0 1 1 338.65363,489.12424 A 5.5558391,5.5558391 0 1 1 349.76531,489.12424 z" />
    <path
       d="M 349.76531,489.12424 A 5.5558391,5.5558391 0 1 1 338.65363,489.12424 A 5.5558391,5.5558391 0 1 1 349.76531,489.12424 z"
       sodipodi:ry="5.5558391"
       sodipodi:rx="5.5558391"
       sodipodi:cy="489.12424"
       sodipodi:cx="344.20947"
       id="path3211"
       style="opacity:1;fill:#000000;fill-opacity:1;stroke:#106101;stroke-width:5;stroke-linecap:round;stroke-linejoin:miter;stroke-miterlimit:4;stroke-dasharray:none;stroke-dashoffset:0;stroke-opacity:0.70614032"
       sodipodi:type="arc"
       transform="translate(-164.55844,-112.56854)" />
    <path
       transform="translate(-150.4163,-86.304574)"
       sodipodi:type="arc"
       style="opacity:1;fill:#000000;fill-opacity:1;stroke:#106101;stroke-width:5;stroke-linecap:round;stroke-linejoin:miter;stroke-miterlimit:4;stroke-dasharray:none;stroke-dashoffset:0;stroke-opacity:0.70614032"
       id="path3213"
       sodipodi:cx="344.20947"
       sodipodi:cy="489.12424"
       sodipodi:rx="5.5558391"
       sodipodi:ry="5.5558391"
       d="M 349.76531,489.12424 A 5.5558391,5.5558391 0 1 1 338.65363,489.12424 A 5.5558391,5.5558391 0 1 1 349.76531,489.12424 z" />
    <path
       d="M 349.76531,489.12424 A 5.5558391,5.5558391 0 1 1 338.65363,489.12424 A 5.5558391,5.5558391 0 1 1 349.76531,489.12424 z"
       sodipodi:ry="5.5558391"
       sodipodi:rx="5.5558391"
       sodipodi:cy="489.12424"
       sodipodi:cx="344.20947"
       id="path3215"
       style="opacity:1;fill:#000000;fill-opacity:1;stroke:#106101;stroke-width:5;stroke-linecap:round;stroke-linejoin:miter;stroke-miterlimit:4;stroke-dasharray:none;stroke-dashoffset:0;stroke-opacity:0.70614032"
       sodipodi:type="arc"
       transform="translate(112.22336,277.35034)" />
    <path
       transform="translate(128.3858,299.5737)"
       sodipodi:type="arc"
       style="opacity:1;fill:#000000;fill-opacity:1;stroke:#106101;stroke-width:5;stroke-linecap:round;stroke-linejoin:miter;stroke-miterlimit:4;stroke-dasharray:none;stroke-dashoffset:0;stroke-opacity:0.70614032"
       id="path3217"
       sodipodi:cx="344.20947"
       sodipodi:cy="489.12424"
       sodipodi:rx="5.5558391"
       sodipodi:ry="5.5558391"
       d="M 349.76531,489.12424 A 5.5558391,5.5558391 0 1 1 338.65363,489.12424 A 5.5558391,5.5558391 0 1 1 349.76531,489.12424 z" />
    <path
       d="M 349.76531,489.12424 A 5.5558391,5.5558391 0 1 1 338.65363,489.12424 A 5.5558391,5.5558391 0 1 1 349.76531,489.12424 z"
       sodipodi:ry="5.5558391"
       sodipodi:rx="5.5558391"
       sodipodi:cy="489.12424"
       sodipodi:cx="344.20947"
       id="path3219"
       style="opacity:1;fill:#000000;fill-opacity:1;stroke:#106101;stroke-width:5;stroke-linecap:round;stroke-linejoin:miter;stroke-miterlimit:4;stroke-dasharray:none;stroke-dashoffset:0;stroke-opacity:0.70614032"
       sodipodi:type="arc"
       transform="translate(102.12183,317.75645)" />
    <path
       transform="translate(77.878169,305.63462)"
       sodipodi:type="arc"
       style="opacity:1;fill:#000000;fill-opacity:1;stroke:#106101;stroke-width:5;stroke-linecap:round;stroke-linejoin:miter;stroke-miterlimit:4;stroke-dasharray:none;stroke-dashoffset:0;stroke-opacity:0.70614032"
       id="path3221"
       sodipodi:cx="344.20947"
       sodipodi:cy="489.12424"
       sodipodi:rx="5.5558391"
       sodipodi:ry="5.5558391"
       d="M 349.76531,489.12424 A 5.5558391,5.5558391 0 1 1 338.65363,489.12424 A 5.5558391,5.5558391 0 1 1 349.76531,489.12424 z" />
    <path
       d="M 349.76531,489.12424 A 5.5558391,5.5558391 0 1 1 338.65363,489.12424 A 5.5558391,5.5558391 0 1 1 349.76531,489.12424 z"
       sodipodi:ry="5.5558391"
       sodipodi:rx="5.5558391"
       sodipodi:cy="489.12424"
       sodipodi:cx="344.20947"
       id="path3223"
       style="opacity:1;fill:#000000;fill-opacity:1;stroke:#106101;stroke-width:5;stroke-linecap:round;stroke-linejoin:miter;stroke-miterlimit:4;stroke-dasharray:none;stroke-dashoffset:0;stroke-opacity:0.70614032"
       sodipodi:type="arc"
       transform="translate(81.918779,285.43157)" />
    <path
       transform="translate(465.77675,-102.46701)"
       sodipodi:type="arc"
       style="opacity:1;fill:#000000;fill-opacity:1;stroke:#106101;stroke-width:5;stroke-linecap:round;stroke-linejoin:miter;stroke-miterlimit:4;stroke-dasharray:none;stroke-dashoffset:0;stroke-opacity:0.70614032"
       id="path3225"
       sodipodi:cx="344.20947"
       sodipodi:cy="489.12424"
       sodipodi:rx="5.5558391"
       sodipodi:ry="5.5558391"
       d="M 349.76531,489.12424 A 5.5558391,5.5558391 0 1 1 338.65363,489.12424 A 5.5558391,5.5558391 0 1 1 349.76531,489.12424 z" />
    <path
       d="M 349.76531,489.12424 A 5.5558391,5.5558391 0 1 1 338.65363,489.12424 A 5.5558391,5.5558391 0 1 1 349.76531,489.12424 z"
       sodipodi:ry="5.5558391"
       sodipodi:rx="5.5558391"
       sodipodi:cy="489.12424"
       sodipodi:cx="344.20947"
       id="path3227"
       style="opacity:1;fill:#000000;fill-opacity:1;stroke:#106101;stroke-width:5;stroke-linecap:round;stroke-linejoin:miter;stroke-miterlimit:4;stroke-dasharray:none;stroke-dashoffset:0;stroke-opacity:0.70614032"
       sodipodi:type="arc"
       transform="translate(437.49248,-82.263959)" />
    <path
       transform="translate(421.33004,-58.020298)"
       sodipodi:type="arc"
       style="opacity:1;fill:#000000;fill-opacity:1;stroke:#106101;stroke-width:5;stroke-linecap:round;stroke-linejoin:miter;stroke-miterlimit:4;stroke-dasharray:none;stroke-dashoffset:0;stroke-opacity:0.70614032"
       id="path3229"
       sodipodi:cx="344.20947"
       sodipodi:cy="489.12424"
       sodipodi:rx="5.5558391"
       sodipodi:ry="5.5558391"
       d="M 349.76531,489.12424 A 5.5558391,5.5558391 0 1 1 338.65363,489.12424 A 5.5558391,5.5558391 0 1 1 349.76531,489.12424 z" />
    <path
       d="M 349.76531,489.12424 A 5.5558391,5.5558391 0 1 1 338.65363,489.12424 A 5.5558391,5.5558391 0 1 1 349.76531,489.12424 z"
       sodipodi:ry="5.5558391"
       sodipodi:rx="5.5558391"
       sodipodi:cy="489.12424"
       sodipodi:cx="344.20947"
       id="path3231"
       style="opacity:1;fill:#000000;fill-opacity:1;stroke:#106101;stroke-width:5;stroke-linecap:round;stroke-linejoin:miter;stroke-miterlimit:4;stroke-dasharray:none;stroke-dashoffset:0;stroke-opacity:0.70614032"
       sodipodi:type="arc"
       transform="translate(425.37065,-31.756332)" />
    <path
       transform="translate(445.5737,-7.5126709)"
       sodipodi:type="arc"
       style="opacity:1;fill:#000000;fill-opacity:1;stroke:#106101;stroke-width:5;stroke-linecap:round;stroke-linejoin:miter;stroke-miterlimit:4;stroke-dasharray:none;stroke-dashoffset:0;stroke-opacity:0.70614032"
       id="path3233"
       sodipodi:cx="344.20947"
       sodipodi:cy="489.12424"
       sodipodi:rx="5.5558391"
       sodipodi:ry="5.5558391"
       d="M 349.76531,489.12424 A 5.5558391,5.5558391 0 1 1 338.65363,489.12424 A 5.5558391,5.5558391 0 1 1 349.76531,489.12424 z" />
    <path
       d="M 349.76531,489.12424 A 5.5558391,5.5558391 0 1 1 338.65363,489.12424 A 5.5558391,5.5558391 0 1 1 349.76531,489.12424 z"
       sodipodi:ry="5.5558391"
       sodipodi:rx="5.5558391"
       sodipodi:cy="489.12424"
       sodipodi:cx="344.20947"
       id="path3235"
       style="opacity:1;fill:#000000;fill-opacity:1;stroke:#106101;stroke-width:5;stroke-linecap:round;stroke-linejoin:miter;stroke-miterlimit:4;stroke-dasharray:none;stroke-dashoffset:0;stroke-opacity:0.70614032"
       sodipodi:type="arc"
       transform="translate(481.93919,-7.5126709)" />
    <path
       transform="translate(514.26407,-23.675112)"
       sodipodi:type="arc"
       style="opacity:1;fill:#000000;fill-opacity:1;stroke:#106101;stroke-width:5;stroke-linecap:round;stroke-linejoin:miter;stroke-miterlimit:4;stroke-dasharray:none;stroke-dashoffset:0;stroke-opacity:0.70614032"
       id="path3237"
       sodipodi:cx="344.20947"
       sodipodi:cy="489.12424"
       sodipodi:rx="5.5558391"
       sodipodi:ry="5.5558391"
       d="M 349.76531,489.12424 A 5.5558391,5.5558391 0 1 1 338.65363,489.12424 A 5.5558391,5.5558391 0 1 1 349.76531,489.12424 z" />
    <path
       d="M 349.76531,489.12424 A 5.5558391,5.5558391 0 1 1 338.65363,489.12424 A 5.5558391,5.5558391 0 1 1 349.76531,489.12424 z"
       sodipodi:ry="5.5558391"
       sodipodi:rx="5.5558391"
       sodipodi:cy="489.12424"
       sodipodi:cx="344.20947"
       id="path3239"
       style="opacity:1;fill:#000000;fill-opacity:1;stroke:#106101;stroke-width:5;stroke-linecap:round;stroke-linejoin:miter;stroke-miterlimit:4;stroke-dasharray:none;stroke-dashoffset:0;stroke-opacity:0.70614032"
       sodipodi:type="arc"
       transform="translate(528.40621,-41.857858)" />
    <path
       transform="translate(536.48743,-66.101519)"
       sodipodi:type="arc"
       style="opacity:1;fill:#000000;fill-opacity:1;stroke:#106101;stroke-width:5;stroke-linecap:round;stroke-linejoin:miter;stroke-miterlimit:4;stroke-dasharray:none;stroke-dashoffset:0;stroke-opacity:0.70614032"
       id="path3241"
       sodipodi:cx="344.20947"
       sodipodi:cy="489.12424"
       sodipodi:rx="5.5558391"
       sodipodi:ry="5.5558391"
       d="M 349.76531,489.12424 A 5.5558391,5.5558391 0 1 1 338.65363,489.12424 A 5.5558391,5.5558391 0 1 1 349.76531,489.12424 z" />
    <path
       d="M 349.76531,489.12424 A 5.5558391,5.5558391 0 1 1 338.65363,489.12424 A 5.5558391,5.5558391 0 1 1 349.76531,489.12424 z"
       sodipodi:ry="5.5558391"
       sodipodi:rx="5.5558391"
       sodipodi:cy="489.12424"
       sodipodi:cx="344.20947"
       id="path3243"
       style="opacity:1;fill:#000000;fill-opacity:1;stroke:#106101;stroke-width:5;stroke-linecap:round;stroke-linejoin:miter;stroke-miterlimit:4;stroke-dasharray:none;stroke-dashoffset:0;stroke-opacity:0.70614032"
       sodipodi:type="arc"
       transform="translate(528.40621,-98.4264)" />
    <path
       transform="translate(502.14224,-108.52793)"
       sodipodi:type="arc"
       style="opacity:1;fill:#000000;fill-opacity:1;stroke:#106101;stroke-width:5;stroke-linecap:round;stroke-linejoin:miter;stroke-miterlimit:4;stroke-dasharray:none;stroke-dashoffset:0;stroke-opacity:0.70614032"
       id="path3245"
       sodipodi:cx="344.20947"
       sodipodi:cy="489.12424"
       sodipodi:rx="5.5558391"
       sodipodi:ry="5.5558391"
       d="M 349.76531,489.12424 A 5.5558391,5.5558391 0 1 1 338.65363,489.12424 A 5.5558391,5.5558391 0 1 1 349.76531,489.12424 z" />
    <path
       d="M 349.76531,489.12424 A 5.5558391,5.5558391 0 1 1 338.65363,489.12424 A 5.5558391,5.5558391 0 1 1 349.76531,489.12424 z"
       sodipodi:ry="5.5558391"
       sodipodi:rx="5.5558391"
       sodipodi:cy="489.12424"
       sodipodi:cx="344.20947"
       id="path3247"
       style="opacity:1;fill:#000000;fill-opacity:1;stroke:#106101;stroke-width:5;stroke-linecap:round;stroke-linejoin:miter;stroke-miterlimit:4;stroke-dasharray:none;stroke-dashoffset:0;stroke-opacity:0.70614032"
       sodipodi:type="arc"
       transform="translate(508.20316,-318.63966)" />
    <path
       transform="translate(481.93919,-340.86302)"
       sodipodi:type="arc"
       style="opacity:1;fill:#000000;fill-opacity:1;stroke:#106101;stroke-width:5;stroke-linecap:round;stroke-linejoin:miter;stroke-miterlimit:4;stroke-dasharray:none;stroke-dashoffset:0;stroke-opacity:0.70614032"
       id="path3249"
       sodipodi:cx="344.20947"
       sodipodi:cy="489.12424"
       sodipodi:rx="5.5558391"
       sodipodi:ry="5.5558391"
       d="M 349.76531,489.12424 A 5.5558391,5.5558391 0 1 1 338.65363,489.12424 A 5.5558391,5.5558391 0 1 1 349.76531,489.12424 z" />
    <path
       d="M 349.76531,489.12424 A 5.5558391,5.5558391 0 1 1 338.65363,489.12424 A 5.5558391,5.5558391 0 1 1 349.76531,489.12424 z"
       sodipodi:ry="5.5558391"
       sodipodi:rx="5.5558391"
       sodipodi:cy="489.12424"
       sodipodi:cx="344.20947"
       id="path3251"
       style="opacity:1;fill:#000000;fill-opacity:1;stroke:#106101;stroke-width:5;stroke-linecap:round;stroke-linejoin:miter;stroke-miterlimit:4;stroke-dasharray:none;stroke-dashoffset:0;stroke-opacity:0.70614032"
       sodipodi:type="arc"
       transform="translate(463.75644,-310.55844)" />
    <path
       transform="translate(475.87827,-278.23356)"
       sodipodi:type="arc"
       style="opacity:1;fill:#000000;fill-opacity:1;stroke:#106101;stroke-width:5;stroke-linecap:round;stroke-linejoin:miter;stroke-miterlimit:4;stroke-dasharray:none;stroke-dashoffset:0;stroke-opacity:0.70614032"
       id="path3253"
       sodipodi:cx="344.20947"
       sodipodi:cy="489.12424"
       sodipodi:rx="5.5558391"
       sodipodi:ry="5.5558391"
       d="M 349.76531,489.12424 A 5.5558391,5.5558391 0 1 1 338.65363,489.12424 A 5.5558391,5.5558391 0 1 1 349.76531,489.12424 z" />
    <path
       d="M 349.76531,489.12424 A 5.5558391,5.5558391 0 1 1 338.65363,489.12424 A 5.5558391,5.5558391 0 1 1 349.76531,489.12424 z"
       sodipodi:ry="5.5558391"
       sodipodi:rx="5.5558391"
       sodipodi:cy="489.12424"
       sodipodi:cx="344.20947"
       id="path3255"
       style="opacity:1;fill:#000000;fill-opacity:1;stroke:#106101;stroke-width:5;stroke-linecap:round;stroke-linejoin:miter;stroke-miterlimit:4;stroke-dasharray:none;stroke-dashoffset:0;stroke-opacity:0.70614032"
       sodipodi:type="arc"
       transform="translate(508.20315,-280.25387)" />
    <path
       transform="translate(439.51278,245.02545)"
       sodipodi:type="arc"
       style="opacity:1;fill:#000000;fill-opacity:1;stroke:#106101;stroke-width:5;stroke-linecap:round;stroke-linejoin:miter;stroke-miterlimit:4;stroke-dasharray:none;stroke-dashoffset:0;stroke-opacity:0.70614032"
       id="path3257"
       sodipodi:cx="344.20947"
       sodipodi:cy="489.12424"
       sodipodi:rx="5.5558391"
       sodipodi:ry="5.5558391"
       d="M 349.76531,489.12424 A 5.5558391,5.5558391 0 1 1 338.65363,489.12424 A 5.5558391,5.5558391 0 1 1 349.76531,489.12424 z" />
    <path
       d="M 349.76531,489.12424 A 5.5558391,5.5558391 0 1 1 338.65363,489.12424 A 5.5558391,5.5558391 0 1 1 349.76531,489.12424 z"
       sodipodi:ry="5.5558391"
       sodipodi:rx="5.5558391"
       sodipodi:cy="489.12424"
       sodipodi:cx="344.20947"
       id="path3259"
       style="opacity:1;fill:#000000;fill-opacity:1;stroke:#106101;stroke-width:5;stroke-linecap:round;stroke-linejoin:miter;stroke-miterlimit:4;stroke-dasharray:none;stroke-dashoffset:0;stroke-opacity:0.70614032"
       sodipodi:type="arc"
       transform="translate(419.30973,285.43155)" />
    <path
       transform="translate(433.45187,325.83765)"
       sodipodi:type="arc"
       style="opacity:1;fill:#000000;fill-opacity:1;stroke:#106101;stroke-width:5;stroke-linecap:round;stroke-linejoin:miter;stroke-miterlimit:4;stroke-dasharray:none;stroke-dashoffset:0;stroke-opacity:0.70614032"
       id="path3261"
       sodipodi:cx="344.20947"
       sodipodi:cy="489.12424"
       sodipodi:rx="5.5558391"
       sodipodi:ry="5.5558391"
       d="M 349.76531,489.12424 A 5.5558391,5.5558391 0 1 1 338.65363,489.12424 A 5.5558391,5.5558391 0 1 1 349.76531,489.12424 z" />
    <path
       d="M 349.76531,489.12424 A 5.5558391,5.5558391 0 1 1 338.65363,489.12424 A 5.5558391,5.5558391 0 1 1 349.76531,489.12424 z"
       sodipodi:ry="5.5558391"
       sodipodi:rx="5.5558391"
       sodipodi:cy="489.12424"
       sodipodi:cx="344.20947"
       id="path3263"
       style="opacity:1;fill:#000000;fill-opacity:1;stroke:#106101;stroke-width:5;stroke-linecap:round;stroke-linejoin:miter;stroke-miterlimit:4;stroke-dasharray:none;stroke-dashoffset:0;stroke-opacity:0.70614032"
       sodipodi:type="arc"
       transform="translate(431.43156,378.36558)" />
    <path
       transform="translate(401.12698,422.81229)"
       sodipodi:type="arc"
       style="opacity:1;fill:#000000;fill-opacity:1;stroke:#106101;stroke-width:5;stroke-linecap:round;stroke-linejoin:miter;stroke-miterlimit:4;stroke-dasharray:none;stroke-dashoffset:0;stroke-opacity:0.70614032"
       id="path3265"
       sodipodi:cx="344.20947"
       sodipodi:cy="489.12424"
       sodipodi:rx="5.5558391"
       sodipodi:ry="5.5558391"
       d="M 349.76531,489.12424 A 5.5558391,5.5558391 0 1 1 338.65363,489.12424 A 5.5558391,5.5558391 0 1 1 349.76531,489.12424 z" />
    <path
       d="M 349.76531,489.12424 A 5.5558391,5.5558391 0 1 1 338.65363,489.12424 A 5.5558391,5.5558391 0 1 1 349.76531,489.12424 z"
       sodipodi:ry="5.5558391"
       sodipodi:rx="5.5558391"
       sodipodi:cy="489.12424"
       sodipodi:cx="344.20947"
       id="path3267"
       style="opacity:1;fill:#000000;fill-opacity:1;stroke:#106101;stroke-width:5;stroke-linecap:round;stroke-linejoin:miter;stroke-miterlimit:4;stroke-dasharray:none;stroke-dashoffset:0;stroke-opacity:0.70614032"
       sodipodi:type="arc"
       transform="translate(360.72088,436.95443)" />
    <path
       transform="translate(338.49752,422.81229)"
       sodipodi:type="arc"
       style="opacity:1;fill:#000000;fill-opacity:1;stroke:#106101;stroke-width:5;stroke-linecap:round;stroke-linejoin:miter;stroke-miterlimit:4;stroke-dasharray:none;stroke-dashoffset:0;stroke-opacity:0.70614032"
       id="path3269"
       sodipodi:cx="344.20947"
       sodipodi:cy="489.12424"
       sodipodi:rx="5.5558391"
       sodipodi:ry="5.5558391"
       d="M 349.76531,489.12424 A 5.5558391,5.5558391 0 1 1 338.65363,489.12424 A 5.5558391,5.5558391 0 1 1 349.76531,489.12424 z" />
    <path
       d="M 349.76531,489.12424 A 5.5558391,5.5558391 0 1 1 338.65363,489.12424 A 5.5558391,5.5558391 0 1 1 349.76531,489.12424 z"
       sodipodi:ry="5.5558391"
       sodipodi:rx="5.5558391"
       sodipodi:cy="489.12424"
       sodipodi:cx="344.20947"
       id="path3271"
       style="opacity:1;fill:#000000;fill-opacity:1;stroke:#106101;stroke-width:5;stroke-linecap:round;stroke-linejoin:miter;stroke-miterlimit:4;stroke-dasharray:none;stroke-dashoffset:0;stroke-opacity:0.70614032"
       sodipodi:type="arc"
       transform="translate(318.29447,374.32497)" />
    <path
       transform="translate(314.25386,339.97978)"
       sodipodi:type="arc"
       style="opacity:1;fill:#000000;fill-opacity:1;stroke:#106101;stroke-width:5;stroke-linecap:round;stroke-linejoin:miter;stroke-miterlimit:4;stroke-dasharray:none;stroke-dashoffset:0;stroke-opacity:0.70614032"
       id="path3273"
       sodipodi:cx="344.20947"
       sodipodi:cy="489.12424"
       sodipodi:rx="5.5558391"
       sodipodi:ry="5.5558391"
       d="M 349.76531,489.12424 A 5.5558391,5.5558391 0 1 1 338.65363,489.12424 A 5.5558391,5.5558391 0 1 1 349.76531,489.12424 z" />
    <path
       d="M 349.76531,489.12424 A 5.5558391,5.5558391 0 1 1 338.65363,489.12424 A 5.5558391,5.5558391 0 1 1 349.76531,489.12424 z"
       sodipodi:ry="5.5558391"
       sodipodi:rx="5.5558391"
       sodipodi:cy="489.12424"
       sodipodi:cx="344.20947"
       id="path3275"
       style="opacity:1;fill:#000000;fill-opacity:1;stroke:#106101;stroke-width:5;stroke-linecap:round;stroke-linejoin:miter;stroke-miterlimit:4;stroke-dasharray:none;stroke-dashoffset:0;stroke-opacity:0.70614032"
       sodipodi:type="arc"
       transform="translate(310.21325,305.63459)" />
    <path
       transform="translate(332.43661,277.35032)"
       sodipodi:type="arc"
       style="opacity:1;fill:#000000;fill-opacity:1;stroke:#106101;stroke-width:5;stroke-linecap:round;stroke-linejoin:miter;stroke-miterlimit:4;stroke-dasharray:none;stroke-dashoffset:0;stroke-opacity:0.70614032"
       id="path3277"
       sodipodi:cx="344.20947"
       sodipodi:cy="489.12424"
       sodipodi:rx="5.5558391"
       sodipodi:ry="5.5558391"
       d="M 349.76531,489.12424 A 5.5558391,5.5558391 0 1 1 338.65363,489.12424 A 5.5558391,5.5558391 0 1 1 349.76531,489.12424 z" />
    <path
       d="M 349.76531,489.12424 A 5.5558391,5.5558391 0 1 1 338.65363,489.12424 A 5.5558391,5.5558391 0 1 1 349.76531,489.12424 z"
       sodipodi:ry="5.5558391"
       sodipodi:rx="5.5558391"
       sodipodi:cy="489.12424"
       sodipodi:cx="344.20947"
       id="path3279"
       style="opacity:1;fill:#000000;fill-opacity:1;stroke:#106101;stroke-width:5;stroke-linecap:round;stroke-linejoin:miter;stroke-miterlimit:4;stroke-dasharray:none;stroke-dashoffset:0;stroke-opacity:0.70614032"
       sodipodi:type="arc"
       transform="translate(360.72088,230.8833)" />
    <path
       transform="translate(395.06607,194.51781)"
       sodipodi:type="arc"
       style="opacity:1;fill:#000000;fill-opacity:1;stroke:#106101;stroke-width:5;stroke-linecap:round;stroke-linejoin:miter;stroke-miterlimit:4;stroke-dasharray:none;stroke-dashoffset:0;stroke-opacity:0.70614032"
       id="path3281"
       sodipodi:cx="344.20947"
       sodipodi:cy="489.12424"
       sodipodi:rx="5.5558391"
       sodipodi:ry="5.5558391"
       d="M 349.76531,489.12424 A 5.5558391,5.5558391 0 1 1 338.65363,489.12424 A 5.5558391,5.5558391 0 1 1 349.76531,489.12424 z" />
    <path
       d="M 349.76531,489.12424 A 5.5558391,5.5558391 0 1 1 338.65363,489.12424 A 5.5558391,5.5558391 0 1 1 349.76531,489.12424 z"
       sodipodi:ry="5.5558391"
       sodipodi:rx="5.5558391"
       sodipodi:cy="489.12424"
       sodipodi:cx="344.20947"
       id="path3283"
       style="opacity:1;fill:#000000;fill-opacity:1;stroke:#106101;stroke-width:5;stroke-linecap:round;stroke-linejoin:miter;stroke-miterlimit:4;stroke-dasharray:none;stroke-dashoffset:0;stroke-opacity:0.70614032"
       sodipodi:type="arc"
       transform="translate(425.37065,194.51781)" />
    <path
       transform="translate(449.61431,214.72086)"
       sodipodi:type="arc"
       style="opacity:1;fill:#000000;fill-opacity:1;stroke:#106101;stroke-width:5;stroke-linecap:round;stroke-linejoin:miter;stroke-miterlimit:4;stroke-dasharray:none;stroke-dashoffset:0;stroke-opacity:0.70614032"
       id="path3285"
       sodipodi:cx="344.20947"
       sodipodi:cy="489.12424"
       sodipodi:rx="5.5558391"
       sodipodi:ry="5.5558391"
       d="M 349.76531,489.12424 A 5.5558391,5.5558391 0 1 1 338.65363,489.12424 A 5.5558391,5.5558391 0 1 1 349.76531,489.12424 z" />
    <path
       d="M 349.76531,489.12424 A 5.5558391,5.5558391 0 1 1 338.65363,489.12424 A 5.5558391,5.5558391 0 1 1 349.76531,489.12424 z"
       sodipodi:ry="5.5558391"
       sodipodi:rx="5.5558391"
       sodipodi:cy="489.12424"
       sodipodi:cx="344.20947"
       id="path3287"
       style="opacity:1;fill:#000000;fill-opacity:1;stroke:#106101;stroke-width:5;stroke-linecap:round;stroke-linejoin:miter;stroke-miterlimit:4;stroke-dasharray:none;stroke-dashoffset:0;stroke-opacity:0.70614032"
       sodipodi:type="arc"
       transform="translate(562.7514,404.62954)" />
    <path
       transform="translate(128.38581,109.665)"
       sodipodi:type="arc"
       style="opacity:1;fill:#000000;fill-opacity:1;stroke:#106101;stroke-width:5;stroke-linecap:round;stroke-linejoin:miter;stroke-miterlimit:4;stroke-dasharray:none;stroke-dashoffset:0;stroke-opacity:0.70614032"
       id="path3289"
       sodipodi:cx="344.20947"
       sodipodi:cy="489.12424"
       sodipodi:rx="5.5558391"
       sodipodi:ry="5.5558391"
       d="M 349.76531,489.12424 A 5.5558391,5.5558391 0 1 1 338.65363,489.12424 A 5.5558391,5.5558391 0 1 1 349.76531,489.12424 z" />
    <path
       d="M 349.76531,489.12424 A 5.5558391,5.5558391 0 1 1 338.65363,489.12424 A 5.5558391,5.5558391 0 1 1 349.76531,489.12424 z"
       sodipodi:ry="5.5558391"
       sodipodi:rx="5.5558391"
       sodipodi:cy="489.12424"
       sodipodi:cx="344.20947"
       id="path3291"
       style="opacity:1;fill:#000000;fill-opacity:1;stroke:#106101;stroke-width:5;stroke-linecap:round;stroke-linejoin:miter;stroke-miterlimit:4;stroke-dasharray:none;stroke-dashoffset:0;stroke-opacity:0.70614032"
       sodipodi:type="arc"
       transform="translate(-13.035546,103.60408)" />
    <path
       transform="translate(-204.96453,196.53811)"
       sodipodi:type="arc"
       style="opacity:1;fill:#000000;fill-opacity:1;stroke:#106101;stroke-width:5;stroke-linecap:round;stroke-linejoin:miter;stroke-miterlimit:4;stroke-dasharray:none;stroke-dashoffset:0;stroke-opacity:0.70614032"
       id="path3293"
       sodipodi:cx="344.20947"
       sodipodi:cy="489.12424"
       sodipodi:rx="5.5558391"
       sodipodi:ry="5.5558391"
       d="M 349.76531,489.12424 A 5.5558391,5.5558391 0 1 1 338.65363,489.12424 A 5.5558391,5.5558391 0 1 1 349.76531,489.12424 z" />
    <path
       d="M 349.76531,489.12424 A 5.5558391,5.5558391 0 1 1 338.65363,489.12424 A 5.5558391,5.5558391 0 1 1 349.76531,489.12424 z"
       sodipodi:ry="5.5558391"
       sodipodi:rx="5.5558391"
       sodipodi:cy="489.12424"
       sodipodi:cx="344.20947"
       id="path3295"
       style="opacity:1;fill:#000000;fill-opacity:1;stroke:#106101;stroke-width:5;stroke-linecap:round;stroke-linejoin:miter;stroke-miterlimit:4;stroke-dasharray:none;stroke-dashoffset:0;stroke-opacity:0.70614032"
       sodipodi:type="arc"
       transform="translate(-217.08636,321.79703)" />
    <path
       transform="translate(-192.8427,327.85795)"
       sodipodi:type="arc"
       style="opacity:1;fill:#000000;fill-opacity:1;stroke:#106101;stroke-width:5;stroke-linecap:round;stroke-linejoin:miter;stroke-miterlimit:4;stroke-dasharray:none;stroke-dashoffset:0;stroke-opacity:0.70614032"
       id="path3297"
       sodipodi:cx="344.20947"
       sodipodi:cy="489.12424"
       sodipodi:rx="5.5558391"
       sodipodi:ry="5.5558391"
       d="M 349.76531,489.12424 A 5.5558391,5.5558391 0 1 1 338.65363,489.12424 A 5.5558391,5.5558391 0 1 1 349.76531,489.12424 z" />
    <path
       d="M 349.76531,489.12424 A 5.5558391,5.5558391 0 1 1 338.65363,489.12424 A 5.5558391,5.5558391 0 1 1 349.76531,489.12424 z"
       sodipodi:ry="5.5558391"
       sodipodi:rx="5.5558391"
       sodipodi:cy="489.12424"
       sodipodi:cx="344.20947"
       id="path3299"
       style="opacity:1;fill:#000000;fill-opacity:1;stroke:#106101;stroke-width:5;stroke-linecap:round;stroke-linejoin:miter;stroke-miterlimit:4;stroke-dasharray:none;stroke-dashoffset:0;stroke-opacity:0.70614032"
       sodipodi:type="arc"
       transform="translate(-209.00514,382.40619)" />
    <path
       transform="translate(-132.23355,406.64985)"
       sodipodi:type="arc"
       style="opacity:1;fill:#000000;fill-opacity:1;stroke:#106101;stroke-width:5;stroke-linecap:round;stroke-linejoin:miter;stroke-miterlimit:4;stroke-dasharray:none;stroke-dashoffset:0;stroke-opacity:0.70614032"
       id="path3301"
       sodipodi:cx="344.20947"
       sodipodi:cy="489.12424"
       sodipodi:rx="5.5558391"
       sodipodi:ry="5.5558391"
       d="M 349.76531,489.12424 A 5.5558391,5.5558391 0 1 1 338.65363,489.12424 A 5.5558391,5.5558391 0 1 1 349.76531,489.12424 z" />
    <path
       d="M 349.76531,489.12424 A 5.5558391,5.5558391 0 1 1 338.65363,489.12424 A 5.5558391,5.5558391 0 1 1 349.76531,489.12424 z"
       sodipodi:ry="5.5558391"
       sodipodi:rx="5.5558391"
       sodipodi:cy="489.12424"
       sodipodi:cx="344.20947"
       id="path3303"
       style="opacity:1;fill:#000000;fill-opacity:1;stroke:#106101;stroke-width:5;stroke-linecap:round;stroke-linejoin:miter;stroke-miterlimit:4;stroke-dasharray:none;stroke-dashoffset:0;stroke-opacity:0.70614032"
       sodipodi:type="arc"
       transform="translate(-77.685313,319.77673)" />
    <path
       transform="translate(94.04062,463.21839)"
       sodipodi:type="arc"
       style="opacity:1;fill:#000000;fill-opacity:1;stroke:#106101;stroke-width:5;stroke-linecap:round;stroke-linejoin:miter;stroke-miterlimit:4;stroke-dasharray:none;stroke-dashoffset:0;stroke-opacity:0.70614032"
       id="path3305"
       sodipodi:cx="344.20947"
       sodipodi:cy="489.12424"
       sodipodi:rx="5.5558391"
       sodipodi:ry="5.5558391"
       d="M 349.76531,489.12424 A 5.5558391,5.5558391 0 1 1 338.65363,489.12424 A 5.5558391,5.5558391 0 1 1 349.76531,489.12424 z" />
    <path
       d="M 349.76531,489.12424 A 5.5558391,5.5558391 0 1 1 338.65363,489.12424 A 5.5558391,5.5558391 0 1 1 349.76531,489.12424 z"
       sodipodi:ry="5.5558391"
       sodipodi:rx="5.5558391"
       sodipodi:cy="489.12424"
       sodipodi:cx="344.20947"
       id="path3307"
       style="opacity:1;fill:#000000;fill-opacity:1;stroke:#106101;stroke-width:5;stroke-linecap:round;stroke-linejoin:miter;stroke-miterlimit:4;stroke-dasharray:none;stroke-dashoffset:0;stroke-opacity:0.70614032"
       sodipodi:type="arc"
       transform="translate(-144.35538,63.197982)" />
    <path
       style="fill:none;fill-rule:evenodd;stroke:#000000;stroke-width:2.5;stroke-linecap:butt;stroke-linejoin:miter;stroke-miterlimit:4;stroke-dasharray:none;stroke-opacity:1"
       d="M 119.28571,96.142856 L 104.28571,118.28571 L 121.42857,150.42857 L 129.28571,185.42857 L 124.28571,215.42857 L 141.42857,244 L 163.57143,274 L 182.85714,306.14286 L 188.57143,339.71428 L 179.28571,376.85714 L 195,404"
       id="path3309" />
    <path
       style="fill:none;fill-rule:evenodd;stroke:#000000;stroke-width:2.5;stroke-linecap:butt;stroke-linejoin:miter;stroke-miterlimit:4;stroke-dasharray:none;stroke-opacity:1"
       d="M 825.71429,146.14286 L 807.85714,179.71428 L 819.28572,211.85714 L 852.14286,209 L 853.57143,169 L 825.71429,146.14286 z"
       id="path3311" />
    <path
       style="fill:none;fill-rule:evenodd;stroke:#000000;stroke-width:2.5;stroke-linecap:butt;stroke-linejoin:miter;stroke-miterlimit:4;stroke-dasharray:none;stroke-opacity:1"
       d="M 846.42857,379.71429 L 810,387.57143 L 782.85714,407.57143 L 765.71429,431.85714 L 770,458.28571 L 788.57143,481.14286 L 827.85714,483.28571 L 857.14286,465.42857 L 874.28572,446.14286 L 881.42857,421.85714 L 872.85714,390.42857 L 846.42857,379.71429 z"
       id="path3313" />
    <path
       style="fill:none;fill-rule:evenodd;stroke:#000000;stroke-width:2.5;stroke-linecap:butt;stroke-linejoin:miter;stroke-miterlimit:4;stroke-dasharray:none;stroke-opacity:1"
       d="M 682.85714,911.85714 L 705,927.57143 L 745,912.57143 L 776.42857,867.57143 L 779.28572,814 L 762.85714,771.85714 L 784.28572,734.71429 L 794.28572,702.57143 L 770,680.42857 L 738.57143,682.57143 L 705.71429,721.85714 L 677.14286,765.42857 L 655,794 L 657.85714,829 L 661.42857,863.28571 L 682.85714,911.85714 z"
       id="path3315" />
    <path
       style="fill:none;fill-rule:evenodd;stroke:#000000;stroke-width:2.5;stroke-linecap:butt;stroke-linejoin:miter;stroke-miterlimit:4;stroke-dasharray:none;stroke-opacity:1"
       d="M 456.42857,766.85714 L 427.85714,774 L 422.85714,791.85714 L 449.28571,807.57143 L 472.85714,789 L 456.42857,766.85714 z"
       id="path3317" />
    <path
       style="fill:none;fill-rule:evenodd;stroke:#000000;stroke-width:2.5;stroke-linecap:butt;stroke-linejoin:miter;stroke-miterlimit:4;stroke-dasharray:2.5, 2.5;stroke-dashoffset:0;stroke-opacity:1"
       d="M 125.71429,809 L 153.57143,817.57143 L 135.71429,871.14286 L 125.71429,809 z"
       id="path3319" />
    <path
       style="fill:none;fill-rule:evenodd;stroke:#000000;stroke-width:2.5;stroke-linecap:butt;stroke-linejoin:miter;stroke-miterlimit:4;stroke-dasharray:2.5, 2.5;stroke-dashoffset:0;stroke-opacity:1"
       d="M 266.42857,809 L 212.14286,896.85714"
       id="path3321" />
  </g>
  <g
     inkscape:groupmode="layer"
     id="layer2"
     inkscape:label="division"
     sodipodi:insensitive="true"
     style="display:inline">
    <path
       style="fill:none;fill-rule:evenodd;stroke:#000000;stroke-width:1px;stroke-linecap:butt;stroke-linejoin:miter;stroke-opacity:1"
       d="M 512,0 L 512,1024"
       id="path3326" />
    <path
       style="fill:none;fill-rule:evenodd;stroke:#000000;stroke-width:1px;stroke-linecap:butt;stroke-linejoin:miter;stroke-opacity:1"
       d="M 0,512 L 1024,512"
       id="path3328" />
    <path
       style="fill:none;fill-rule:evenodd;stroke:#000000;stroke-width:1px;stroke-linecap:butt;stroke-linejoin:miter;stroke-opacity:1"
       d="M 768,0 L 768,512"
       id="path3330" />
    <path
       style="fill:none;fill-rule:evenodd;stroke:#000000;stroke-width:1px;stroke-linecap:butt;stroke-linejoin:miter;stroke-opacity:1"
       d="M 512,256 L 1024,256"
       id="path3332" />
    <path
       style="fill:none;fill-rule:evenodd;stroke:#000000;stroke-width:1px;stroke-linecap:butt;stroke-linejoin:miter;stroke-opacity:1"
       d="M 768,512 L 768,1024"
       id="path3334" />
    <path
       style="fill:none;fill-rule:evenodd;stroke:#000000;stroke-width:1px;stroke-linecap:butt;stroke-linejoin:miter;stroke-opacity:1"
       d="M 512,768 L 1024,768"
       id="path3336" />
    <path
       style="fill:none;fill-rule:evenodd;stroke:#000000;stroke-width:1px;stroke-linecap:butt;stroke-linejoin:miter;stroke-opacity:1"
       d="M 256,512 L 256,1024"
       id="path3338" />
    <path
       style="fill:none;fill-rule:evenodd;stroke:#000000;stroke-width:1px;stroke-linecap:butt;stroke-linejoin:miter;stroke-opacity:1"
       d="M 0,768 L 512,768"
       id="path3340" />
    <path
       style="fill:none;fill-rule:evenodd;stroke:#000000;stroke-width:1px;stroke-linecap:butt;stroke-linejoin:miter;stroke-opacity:1"
       d="M 256,512 L 256,0"
       id="path3342" />
    <path
       style="fill:none;fill-rule:evenodd;stroke:#000000;stroke-width:1px;stroke-linecap:butt;stroke-linejoin:miter;stroke-opacity:1"
       d="M 512,256 L 0,256"
       id="path3344" />
    <path
       style="fill:none;fill-rule:evenodd;stroke:#000000;stroke-width:1px;stroke-linecap:butt;stroke-linejoin:miter;stroke-opacity:1"
       d="M 640,768 L 640,1024"
       id="path3346" />
    <path
       style="fill:none;fill-rule:evenodd;stroke:#000000;stroke-width:1px;stroke-linecap:butt;stroke-linejoin:miter;stroke-opacity:1"
       d="M 512,896 L 768,896"
       id="path3348" />
    <path
       style="fill:none;fill-rule:evenodd;stroke:#000000;stroke-width:1px;stroke-linecap:butt;stroke-linejoin:miter;stroke-opacity:1"
       d="M 896,256 L 896,512"
       id="path3350" />
    <path
       style="fill:none;fill-rule:evenodd;stroke:#000000;stroke-width:1px;stroke-linecap:butt;stroke-linejoin:miter;stroke-opacity:1"
       d="M 1024,384 L 768,384"
       id="path3352" />
    <path
       style="fill:none;fill-rule:evenodd;stroke:#000000;stroke-width:1px;stroke-linecap:butt;stroke-linejoin:miter;stroke-opacity:1"
       d="M 832,384 L 832,512"
       id="path3354" />
    <path
       style="fill:none;fill-rule:evenodd;stroke:#000000;stroke-width:1px;stroke-linecap:butt;stroke-linejoin:miter;stroke-opacity:1"
       d="M 896,448 L 768,448"
       id="path3356" />
    <path
       style="fill:none;fill-rule:evenodd;stroke:#000000;stroke-width:1px;stroke-linecap:butt;stroke-linejoin:miter;stroke-opacity:1"
       d="M 128,0 L 128,256"
       id="path3358" />
    <path
       style="fill:none;fill-rule:evenodd;stroke:#000000;stroke-width:1px;stroke-linecap:butt;stroke-linejoin:miter;stroke-opacity:1"
       d="M 0,128 L 256,128"
       id="path3360" />
  </g>
  <g
     inkscape:groupmode="layer"
     id="layer3"
     inkscape:label="box_1"
     style="display:none"
     sodipodi:insensitive="true">
    <rect
       style="opacity:1;fill:#000000;fill-opacity:0.21052635;stroke:none;stroke-width:2.5;stroke-linecap:round;stroke-linejoin:miter;stroke-miterlimit:4;stroke-dasharray:2.5, 2.5;stroke-dashoffset:0;stroke-opacity:0.70614032"
       id="rect3363"
       width="214.15234"
       height="157.5838"
       x="640.43671"
       y="648.22327" />
  </g>
  <g
     inkscape:groupmode="layer"
     id="layer4"
     inkscape:label="box_1_result"
     sodipodi:insensitive="true"
     style="display:none">
    <rect
       style="opacity:1;fill:#ff000b;fill-opacity:0.1842105;stroke:none;stroke-width:2.5;stroke-linecap:round;stroke-linejoin:miter;stroke-miterlimit:4;stroke-dasharray:2.5, 2.5;stroke-dashoffset:0;stroke-opacity:0.70614032"
       id="rect3388"
       width="512"
       height="256"
       x="512"
       y="512" />
    <rect
       style="opacity:1;fill:#ff0000;fill-opacity:0.21052635;stroke:none;stroke-width:2.5;stroke-linecap:round;stroke-linejoin:miter;stroke-miterlimit:4;stroke-dasharray:2.5, 2.5;stroke-dashoffset:0;stroke-opacity:0.70614032"
       id="rect3390"
       width="128"
       height="128"
       x="640"
       y="768" />
    <rect
       style="opacity:1;fill:#ff0000;fill-opacity:0.21052635;stroke:none;stroke-width:2.5;stroke-linecap:round;stroke-linejoin:miter;stroke-miterlimit:4;stroke-dasharray:2.5, 2.5;stroke-dashoffset:0;stroke-opacity:0.70614032"
       id="rect3392"
       width="256"
       height="256"
       x="768"
       y="768" />
  </g>
  <g
     inkscape:groupmode="layer"
     id="layer5"
     inkscape:label="box_2"
     style="display:none"
     sodipodi:insensitive="true">
    <rect
       style="opacity:1;fill:#000000;fill-opacity:0.21052635;stroke:none;stroke-width:2.5;stroke-linecap:round;stroke-linejoin:miter;stroke-miterlimit:4;stroke-dasharray:2.5, 2.5;stroke-dashoffset:0;stroke-opacity:0.70614032"
       id="rect3395"
       width="697.00525"
       height="513.15747"
       x="250.51784"
       y="234.06071" />
  </g>
  <g
     inkscape:groupmode="layer"
     id="layer6"
     inkscape:label="box_2_result"
     style="display:none">
    <rect
       style="opacity:1;fill:#ff0000;fill-opacity:0.21052635;stroke:none;stroke-width:2.5;stroke-linecap:round;stroke-linejoin:miter;stroke-miterlimit:4;stroke-dasharray:2.5, 2.5;stroke-dashoffset:0;stroke-opacity:0.70614032"
       id="rect3400"
       width="1024"
       height="512"
       x="0"
       y="256" />
    <rect
       style="opacity:1;fill:#ff0000;fill-opacity:0.21052635;stroke:none;stroke-width:2.5;stroke-linecap:round;stroke-linejoin:miter;stroke-miterlimit:4;stroke-dasharray:2.5, 2.5;stroke-dashoffset:0;stroke-opacity:0.70614032"
       id="rect3404"
       width="768"
       height="256"
       x="256"
       y="0" />
    <rect
       style="opacity:1;fill:#ff0000;fill-opacity:0.21052635;stroke:none;stroke-width:2.5;stroke-linecap:round;stroke-linejoin:miter;stroke-miterlimit:4;stroke-dasharray:2.5, 2.5;stroke-dashoffset:0;stroke-opacity:0.70614032"
       id="rect3406"
       width="128"
       height="128"
       x="128"
       y="128" />
  </g>
  <g
     inkscape:groupmode="layer"
     id="layer7"
     inkscape:label="box_3"
     style="display:inline">
    <rect
       style="opacity:1;fill:#000000;fill-opacity:0.21052635;stroke:none;stroke-width:2.50000000000000000;stroke-linecap:round;stroke-linejoin:miter;stroke-miterlimit:4;stroke-dasharray:2.50000000000000000, 2.50000000000000000;stroke-dashoffset:0;stroke-opacity:0.70614032000000004"
       id="rect3409"
       width="320"
       height="256"
       x="384"
       y="704" />
  </g>
  <g
     inkscape:groupmode="layer"
     id="layer8"
     inkscape:label="box_3_result"
     sodipodi:insensitive="true"
     style="display:none">
    <rect
       style="opacity:1;fill:#ff0000;fill-opacity:0.21052635;stroke:none;stroke-width:2.5;stroke-linecap:round;stroke-linejoin:miter;stroke-miterlimit:4;stroke-dasharray:2.5, 2.5;stroke-dashoffset:0;stroke-opacity:0.70614032"
       id="rect3412"
       width="512"
       height="512"
       x="256"
       y="512" />
  </g>
</svg>
